Coordinates
version=1
nRows=10
nColumns=23
inDegrees=yes

Units are S.I. units (second, meters, Newtons, ...)
If the header above contains a line with 'inDegrees', this indicates whether rotational values are in degrees (yes) or radians (no).

endheader
time	pelvis_tilt	pelvis_list	pelvis_rotation	pelvis_tx	pelvis_ty	pelvis_tz	hip_flexion_r	hip_adduction_r	hip_rotation_r	knee_angle_r	knee_angle_r_beta	ankle_angle_r	subtalar_angle_r	mtp_angle_r	hip_flexion_l	hip_adduction_l	hip_rotation_l	knee_angle_l	knee_angle_l_beta	ankle_angle_l	subtalar_angle_l	mtp_angle_l
      7.50000000	     -4.80317118	      2.94074787	     10.28000547	      2.12311324	      1.08889468	      0.96390102	    -15.07026269	     -5.83785198	    -24.43661709	     42.93721892	      0.74939584	     -8.36104568	    -15.25843717	      0.00000000	     20.61695669	      7.94528744	      7.41355143	      9.18224944	      0.16026049	     11.35029528	      8.57705669	      0.00000000
      7.50666667	     -4.38555189	      3.31065162	     10.49806974	      2.12234266	      1.08533846	      0.96345633	    -14.70028130	     -6.37536415	    -23.59857199	     46.34941937	      0.80894997	     -8.60889007	    -17.05403564	      0.00000000	     20.13401545	      8.37290117	      7.60005901	      8.93953958	      0.15602440	     11.40527913	      8.42900320	      0.00000000
      7.51333333	     -4.35633099	      3.60048621	     10.48787105	      2.12110287	      1.08099149	      0.96344013	    -13.61532603	     -6.89816926	    -22.30895295	     50.06403814	      0.87378230	     -9.39990795	    -19.38427460	      0.00000000	     20.30834274	      8.69766612	      7.36614886	      9.39187157	      0.16391908	     11.05882703	      7.87980590	      0.00000000
      7.52000000	     -4.35946678	      4.04728587	     10.60084251	      2.11961216	      1.07608440	      0.96324012	    -12.46388456	     -7.62522642	    -21.33176067	     53.94645258	      0.94154322	    -10.20985501	    -21.23799317	      0.00000000	     20.73965625	      9.23601462	      6.95902536	     10.65468750	      0.18595938	     10.66661669	      7.38658515	      0.00000000
      7.52666667	     -4.47275915	      4.51974390	     10.74565355	      2.11784319	      1.07059288	      0.96304240	    -11.09653379	     -8.40892953	    -20.41575027	     57.96160978	      1.01162093	    -11.06479206	    -22.89394483	      0.00000000	     21.50517516	      9.81820746	      6.37061731	     12.64507026	      0.22069811	     10.17188038	      6.86824883	      0.00000000
      7.53333333	     -4.71789000	      5.00396319	     10.90735570	      2.11583268	      1.06456000	      0.96292734	     -9.49511279	     -9.22100784	    -19.51358729	     62.05747688	      1.08310730	    -11.91728062	    -24.36497716	      0.00000000	     22.52778844	     10.44163531	      5.87706651	     15.14119835	      0.26426376	      9.45307377	      5.98605518	      0.00000000
      7.54000000	     -5.06307054	      5.46121838	     11.06313688	      2.11357663	      1.05805299	      0.96292774	     -7.68523338	    -10.01018832	    -18.57510089	     66.19697721	      1.15535521	    -12.62978415	    -25.54909845	      0.00000000	     23.77234168	     11.04989810	      5.43337751	     18.10768860	      0.31603879	      8.87048053	      4.94315492	      0.00000000
      7.54666667	     -5.40831424	      5.88928994	     11.26443767	      2.11124821	      1.05133648	      0.96295052	     -5.83676513	    -10.75622064	    -17.70191444	     70.26319605	      1.22632411	    -13.11785189	    -26.45817778	      0.00000000	     25.02431711	     11.66999190	      5.24044730	     21.32558469	      0.37220167	      8.43325361	      3.68588391	      0.00000000
      7.55333333	     -5.79540169	      6.30393966	     11.45321156	      2.10872015	      1.04444349	      0.96309380	     -3.85324202	    -11.46338060	    -16.76364046	     74.29810459	      1.29674655	    -13.31851686	    -27.09517819	      0.00000000	     26.28340016	     12.31746035	      5.26459092	     24.64940460	      0.43021327	      8.32761002	      2.17468788	      0.00000000
      7.56000000	     -6.17205533	      6.71768351	     11.63892244	      2.10627156	      1.03771592	      0.96327152	     -1.85751107	    -12.15118151	    -15.82109019	     78.16234255	      1.36419023	    -13.24524188	    -27.52173920	      0.00000000	     27.39869794	     13.02114103	      5.55305801	     27.90670211	      0.48706384	      8.66916735	      0.54996451	      0.00000000
